/* XPM */
static char *b61348e25b124f25ec56ed2cec872b0d[] = {
/* columns rows colors chars-per-pixel */
"128 128 86 1 ",
"  c #020202",
". c #0D0D0D",
"X c #141414",
"o c #1A1A1A",
"O c #242424",
"+ c #2B2B2B",
"@ c #343434",
"# c #3A3A3A",
"$ c #485733",
"% c #56772A",
"& c #3F464D",
"* c #3C4955",
"= c #06437C",
"- c #3B5367",
"; c #444545",
": c #45494D",
"> c #4C4C4C",
", c #504F4F",
"< c #515A42",
"1 c #51504F",
"2 c #424950",
"3 c #4F5253",
"4 c #45525D",
"5 c #545454",
"6 c #575955",
"7 c #595B55",
"8 c #575658",
"9 c #5D5D5D",
"0 c #576544",
"q c #566A41",
"w c #58604E",
"e c #5D694B",
"r c #646E57",
"t c #61625E",
"y c #64695E",
"u c #657453",
"i c #555B61",
"p c #5F5F60",
"a c #5E6164",
"s c #54606A",
"d c #58646F",
"f c #636363",
"g c #696664",
"h c #666569",
"j c #69676B",
"k c #6B6B6B",
"l c #6B7163",
"z c #706F70",
"x c #6F7071",
"c c #69757F",
"v c #747474",
"b c #777579",
"n c #77787B",
"m c #7B7B7B",
"M c #708951",
"N c #77816B",
"B c #7A8172",
"V c #80847C",
"C c #617382",
"Z c #6E7A84",
"A c #737880",
"S c #7D8587",
"D c #73808B",
"F c #7D8389",
"G c #838383",
"H c #80848E",
"J c #868889",
"K c #8B8B8B",
"L c #949494",
"P c #989797",
"I c #969994",
"U c #9C9C9C",
"Y c #A29F9D",
"T c #9E9FA0",
"R c #9FA0A0",
"E c #A2A2A2",
"W c #A7A8A7",
"Q c #AAAFA5",
"! c #A5A4A9",
"~ c #ABABAC",
"^ c #AFB0B1",
"/ c #B3B3B3",
"( c #B7B7B8",
") c #BCBCBC",
"_ c #C2C2C2",
"` c None",
/* pixels */
"````````````````````````````````````````````````````````````````````````````````````````````````````````````````````````````````",
"````````````````````````````````````````````````````````````````````````````````````````````````````````````````````````````````",
"````````````````````````````````````````````````````````````````````````````````````````````````````````````````````````````````",
"````````````````````````````````````````````````````````````````````````````````````````````````````````````````````````````````",
"````````````````````````````````````````````````````````````````````````````````````````````````````````````````````````````````",
"````````````````````````````````````````````````````````````````````````````````````````````````````````````````````````````````",
"````````````````````````````````````````````````````````````````````````````````````````````````````````````````````````````````",
"````````````````````````````````````````````````````````````````````````````````````````````````````````````````````````````````",
"````````````````````````````````````````````````````````````````````````````````````````````````````````````````````````````````",
"````````````````````````````````````````````````````````````````````````````````````````````````````````````````````````````````",
"````````````````````````````````````````````````````````````````````````````````````````````````````````````````````````````````",
"````````````````````````````````````````````````````````````````````````````````````````````````````````````````````````````````",
"````````````````````````````````````````````````````````````````````````````````````````````````````````````````````````````````",
"````````````````````````````````````````````````````````````````````````````````````````````````````````````````````````````````",
"````````````````````````````````````````````````````````````````````````````````````````````````````````````````````````````````",
"````````````````````````````````````````````````````````````````````````````````````````````````````````````````````````````````",
"````````````````````````````````````````````````````````````````````````````````````````````````````````````````````````````````",
"````````````````````````````````````````````````````````````````````````````````````````````````````````````````````````````````",
"````````````````````````````````````````````````````````````````````````````````````````````````````````````````````````````````",
"````````````````````````````````````````````````````````````````````````````````````````````````````````````````````````````````",
"````````````````````````````````````````````````````````````````````````````````````````````````````````````````````````````````",
"````````````````````````````````````````````````````````````````````````````````````````````````````````````````````````````````",
"````````````````````````````````````````````````````````````````````````````````````````````````````````````````````````````````",
"````````````````````````````````````````````````````````````````````````````````````````````````````````````````````````````````",
"````````````````````````````````````````````````````````````````````````````````````````````````````````````````````````````x```",
"``````````````````````````````````````````````````````````````````````````````````````````````````````````````````````````PX ```",
"```````````````````````````````````````````````````````````````````````````````````````````````````````````JP``.```5m````LX.O```",
"``````````````````````````````````````````````````````````````````````````````````````````````````````````O .OXo9G8.K```L..O````",
"``````````````````````````````````````````````````````````````````````````````````````````````````````````WfO..o...oO+@#o.o`````",
"`````````````````````````````````````````````````````````````````````````````````````````````````````````````W9o.XoooX.XXO``````",
"````````````````````````````````````````````````````````````````````````````````````````````````````````````````xO.ooXoo.t``````",
"``````````````````````````````````````````````````````````````````````````````````````````````````````````````````>Xoooo.,``````",
"`````````````````````````````````~EKKKKKKKKKKKJKJI^````````````````````````````````````````````````````````````````@XooXX+``````",
"`````````````````````````````W!KKKKLIPPPPUUPUPPLLKKJPW`````````````````````````````````````````````````````````````+X.oooOLm````",
"``````````````````````````WLJKLPPPUUUUUUUUUURUUUUPPLKKJP``````````````````````````````````````````````````````````:.o#oooo.m````",
"```````````````````````)EKKLULPPPUUUUUUURURRUURUUUUPPPLKJP^``````````````````````````````````````````````````````; ;``EXX.m`````",
"``````````````````````IHKLPPUPUPUUUUUUUUUTUURRTUUUUUPPPLLKJJ````````````````````````````````````````````````````; f````,..J`````",
"````````````````````!KLLPPPUUPPUPUUUUUUUUUTYRUUTTUUUPLL^WLLLJL````````````````````````````````````````````K>gnJ; f`````L..9K````",
"``````````````````)JKPLUPUPPPPPUUUUUUUUUUTUTUTTTTYUUUPP!__WKKKK^``````````````````````````````````````````@ ....f```````OXoXU```",
"`````````````````RKLIPLLPPPPPUUPUPUUPUUUUUTUTYUTTTUUUUPLKE``EKKGW``````````````````````````````````````````P+XoX````````9.oP````",
"````````````````LKLLLULULULULULUUPUUUUUUUUUTYYUTUEUEUUUPLLK``(LLJJ``````````````````````````````````````````kOX.````````U.+`````",
"``````````````)JLLLULLULULULLIUUUUUUUUUUUYTUUTUTEUEUEETUPLLKW``UKKJ```````````````````````````````````````Ym(`+ L````````O.`````",
"`````````````)KLLLLLLLULLULUULLUPUPUUUUUUUTUUYTYTREUUUEYUUPLKU``_KKJ`````````````````````````````````````Ln```G 9````````z G````",
"````````````)JLLLLULULLULLULUUUUPUUUPUUUUUUYUTTURUYEEEETEEULLJY```PJJ``````````````````````````````````(nm`````;``````````@`````",
"```````````_KLLLLLLLULULULULLUULPPUUUUUUUTUUUYUUEUEUUERRERUULKV````UGJ````````````````````````````````LnJ```````````````````````",
"```````````LKLPLLLLULLLULULUULLUUUPUUIUUUUUUTTTTUEUEEUEYEYTULJP`````/GJ`````````````````````````````UmJK````````````````````````",
"``````````LKLLLLULLLLLLLLUULLUUUPUUUUUUUUUUUUTTYUUURRUETRETPLJ^``````)mY``````````````````````````UmGKK`````````````````````````",
"`````````EKLLLPLLLLLLUUPLLLUULUPIPUPUUUUUTUUYUTUEUTYTEEUEEEPKJ````````_mW```````````````````````(nmKLL``````````````````````````",
"````````)KLLLLLLLLLLPLPPPPPPPPPUUPUUPUUUUUUUUTUEUREUEYRREEUPLG`````````_A`````````````````````UVnKLLW```````````````````````````",
"````````LKLLLLLLPLPLLPPLPPPPUPPPPUPUUUPUUUUTUUUEEUUTUEUEEUEPLG^`````````UU``````````````````PnmJLPLW````````````````````````````",
"```````(JLLLLLLLLLPLLPPLPPPLPPPPIPUPPTUUUUUUUURUUURUTEEREEEULKL``````````LE``````````````(KnmKLPLK``````````````````````````````",
"```````JLLLKLLLLLLLLLLPPPPPLPPPPUPPUUPUUUUUUUYURYTUEYUEUUEEULLJP)`````````G````````````^GbmKPPPL~```````````````````````````````",
"``````EKLLLLLLLLLLLLLLLLLLLLLLLLLLLLLLLLLLPPPUYYUREUUEUEEEUUUPPKKKE_)```````````````)PvxVKLPPLK`````````````````````````````````",
"``````KLKLLLLLLLLLLLLKKKJJKYUUUYURRERRRREEELLLLPPPPPUTTUUUEEYYUPLLKGGVKP_````````)/VvnJLPPPPL~``````````````````````````````````",
"`````WKLLLLLLLLKKKKGKUU_``````````````````````)YWWELKLLLLLLLLLLLKKLEU``````````~GvvmKLLPPLKU````````````````````````````````````",
"`````LKLLLKLKKKGLU~``````````````/^^//(``````````````````````````````````_/^GmvxmJKLLPLLKU_`````````````````````````````````````",
"````)KLLKKKKGGE````````EIe0ykf766999999kkkzKE!WW^(````````````````/~WWJvvxkzvmJKLLLPLLLW````````````````````````````````````````",
"````LKLKKKGE``````e0tt79pkkkkvvvvvvvvvzkzkkfpgpf9fgjggkkkzkzkkzkkkkkkkvvmGGKKLLPLLKKUW``````````````````````````````````````````",
"````JKKKmL````Nw99jjzzbmnmmmmmmGGGGGGGGmGGmmVmmmnnnbvmvvbvbmmmmmmVGGJJKKKKLLLPLLKLE_````````````````````````````````````````````",
"```)KKmK```rt9gkzvnmmmmmmmGmGmGmmGmGmGGGGGGJGGKGJGJJKGKKKJKJKKKKKKKKLKLLLLKLLKKK~```````````````````````````````````````````````",
"```WGmU``ltgkvvmnnmmmmmmmmGmmGmGGGAGGGGGVGGGJJGJJVKKVKKGKKKKKKKKLKLKLKLKKLKLLP_`````````````````````````````````````````````````",
"```Ev(`WfjzvnnmmmmmmmmGmmGmmGmGmGmGGGVGGGGGGGGGKJKGKGKKGJJKKKKKKKKKKKKKKLPEUZ```````````````````````````````````````````````````",
"```L^`EfznvmmvmmmmmmmmmmmmGGmmGGmmGmGmGGGGGGGGKGGGKGKKKKKKJKKKKKLKJJKY/UEm``````````````````````````````````````````````````````",
"```W`WfvbnnmnmmmmnmmmmVmmGmmmGmGGGGGGGGGGGGGJGGJJJGKKGGKJKKKVKGKJP/_`(Kkm/``````````````````````````````````````````````````````",
"````/lvvmvmvmmmmmmmmmmmGmmmmmGGmmGGGGGGmGGGGGJJGJGJJKJJJJJGJL^^_`)WPf9G(````````````````````````````````````````````````````````",
"````mzvmvmvmvmvmmmmmmmmmmmGGGmmGGmGmmGGGGGGGGGGJGJGGVGVJK^)````Umg59L```````````````````````````````````````````````````````````",
"```^kbvvmmvmmmvmmbmmmmmmGmGmmmGmmGGGGGGGGGGGGGGGGVJK~/_````!Lzg99bE`````````````````````````````````````````````````````````````",
"```VvbmvvvmvmvmmmmmmmmmmmmmmmGmmmGVGmGGGGGGGmGVJY(`````(Lvkzfffn(```````````````````````````````````````````````````````````````",
"```bmvmmmvmvmmvvbmbmmmmmmmmGGmmGmGGmGGmmmmGP^(`````ELvkxxvxfgL``````````````````````````````````````````````````````````````````",
"``EvvvvvvmmmvmmmmmmmmmmmmGmmVmGmGmmGmmGJP(``````PvzzvbbbxgjL````````````````````````````````````````````````````````````````````",
"``EzvmvvmvvmvmmvmmmmmmmmmmmGGmAmmnmGW``````EKvggzvbmmnxfgK``````````````````````````````````````````````````````````````````````",
"``YzvvmmvvmvmvmmvmbmmmmmGmmmmmmVJ^`````EKngjkxbbmmnvkthP````````````````````````````````````````````````````````````````````````",
"``YxvnnvmvmvmvvmmmmmmmmmBAmbmU)````TJjfffkvvnnmmnvh9k^``````````````````````````````````````````````````````````````````````````",
"``UxbvvnvmvmvmmmvmvmmmmmnnK^```KJg9tfgzxvvvbmvvvgtzW````````````````````````````````````````````````````````````````````````````",
"``UxvmvmvvvvmmvmmmmmmmvvK_`Rm999pgjkxxxxvvvvvxkttP``````````````````````````````````````````````````````````````````````````````",
"``EzvvvvmvmmvmmvmvmmmzK__Lk6pgfjkkzzxxvxvvvzk97K````````````````````````````````````````````````````````````````````````````````",
"``Yxvvvmvvmmvmmvmnmnv~`Watthjjhkzkkxzzvvxxkf6x``````````````````````````````````````````````````````````````````````````````````",
"``Wvmvvvmvvvmmvmbmvm^`m7afggyjkkkkkxxzxzkf5p^```````````````````````````````````````````````````````````````````````````````````",
"``~vvmvmvmmvvmmvmvm`^p9ffkfkkgjlkkzkxxkg95K`````````````````````````````````````````````````````````````````````````````````````",
"```mvvvvvmvvmvnmvz`/pppffffffkjkkkkzkgt5f```````````````````````````````````````````````````````````````````````````````````````",
"```Kvvvvvmmvvmmvz~~f9fffffgfjjjkkkxkh9>j````````````````````````````````````````````````````````````````````````````````````````",
"```^zbnvmvvmmvmkW`f9pfpffffjjyykkkgg6>z``````````````````````^mjgC``````````````````````````````````````````````````````````````",
"````mvvnvmvvmvvv`J9pfftffffjjjjjkkg6>i```````````````````_^mj9>9W```````````````````````````````````````````````````````````````",
"````VvvvvvmvvmkE^p9pppffgffgjyjkhh9,2``````````````````(Gzkk96J`````````````````````````````````````````````````````````````````",
"````Wvbvvmmvvvz`J99ppfpffffghhykkf6;4````````````````Qmxxvj9g/``````````````````````````````````````````````````````````````````",
"`````mvbvvvvmkG`f9pppptffffgjfjjht3;i``````````````Pxxvbxf5G````````````````````````````````````````````````````````````````````",
"`````WxnvmbmbkK)t9pppfpffffhjhkjjy3;4```````````(Vzzbnbxf5W`````````````````````````````````````````````````````````````````````",
"``````mvvvvbvkN`8pptpppffffffyfkjf9,:a````````Wmzzvnnvj96```````````````````````````````````````````````````````````````````````",
"``````Wbvvvvvg``89p9pftfyffffkyjkff96,6fzzxxxgfxvvnbvg91``````````````````=`````````````````````````````````````````````````````",
"```````Bvmvmvk``8p9fp9ppaffffffjhkggffpt9tgfkxvvvvvvj95`````````````````W5-`````````````````````````````````````````````````````",
"```````~zvvvvg``899ppppffffffjfjkgjkjjkkkkxxxvvxvvvj9,x````````````````E5;``````````````````````````````````````````````````````",
"````````Uzvmvj``89p9ptfpfaffffkfkfgkjkkkzzxxxxxvvxzt13````````````````G9;s``````````````````````````````````````````````````````",
"`````````mvvvhu`89p9p9p9fafffjfgfkkjkkkkzlzzvxxzxvg9:d``````````````)n95;```````````````````````````````````````````````````````",
"`````````_vvvjuQf99p99fftftfffyhhfjjjjkkkkkkzzzzxzf5:Z`````````````Pkg9;T```````````````````````````````````````````````````````",
"``````````Yvbz7`m99t9ff9f9fffffjfyyjljkkkkzxzzvxxzt1:F```````````^xkjt;j````````````````````````````````````````````````````````",
"```````````Kvx9`F9p9999f9f9fffffffjjjgkkkkkkzkzxxk9>*``````````(mzxzf>f`````````````````````````````````````````````````````````",
"````````````Gxhq`j99p9ff9f9ffffffhjjykkkkkkkxkxxxla5&c```````/mkzxkf15``````````````````````````````````````````````````````````",
"`````````````Ag<`H999999f9ffffffffjfhgyjjlkkkkxxzjf6>6G```UGkjkvxkf,>^``````````````````````````````````````````````````````````",
"``````````````m8M`f99p9p99f99fffffghfyjjjkkkkkkkzzgf969fffflxxvxjf>9(```````````````````````````````````````````````````````````",
"```````````````m$`!99p9t9f9ffff9fffyjjjjjhkkkkkkkkkkjjjfjzzxxxzgt:f`````````````````````````````````````````````````````````````",
"````````````````V%`A9999ppfp9fffffffhfhgfjkkkkkkzkkxzkkxzzxxzkf9:z``````````````````````````````````````````````````````````````",
"````````````````````j9999p9tf9fpfffffgfhyjfkfkkkkkkkkzkxzzkkga5>Y```````````````````````````````````````````````````````````````",
"`````````````````````j999pppfp9fffffffhgjykkkjjlljkkkkkxxkjf6>k)````````````````````````````````````````````````````````````````",
"``````````````````````x6999p9pptaffffffffjfffkjjjkkkkkkkhf6>h^``````````````````````````````````````````````````````````````````",
"```````````````````````Wg9999pfpfpfffffffghfghjjgkkhjff98>zE````````````````````````````````````````````````````````````````````",
"`````````````````````````Kj66899tapfpffffffghgggghyf9659n)``````````````````````````````````````````````````````````````````````",
"```````````````````````````)Exk96699999fafftatp99569zU^`````````````````````````````````````````````````````````````````````````",
"````````````````````````````````/Rvvxzffffaffkxxb~^`````````````````````````````````````````````````````````````````````````````",
"````````````````````````````````````````````````````````````````````````````````````````````````````````````````````````````````",
"````````````````````````````````````````````````````````````````````````````````````````````````````````````````````````````````",
"````````````````````````````````````````````````````````````````````````````````````````````````````````````````````````````````",
"````````````````````````````````````````````````````````````````````````````````````````````````````````````````````````````````",
"````````````````````````````````````````````````````````````````````````````````````````````````````````````````````````````````",
"````````````````````````````````````````````````````````````````````````````````````````````````````````````````````````````````",
"````````````````````````````````````````````````````````````````````````````````````````````````````````````````````````````````",
"````````````````````````````````````````````````````````````````````````````````````````````````````````````````````````````````",
"````````````````````````````````````````````````````````````````````````````````````````````````````````````````````````````````",
"````````````````````````````````````````````````````````````````````````````````````````````````````````````````````````````````",
"````````````````````````````````````````````````````````````````````````````````````````````````````````````````````````````````",
"````````````````````````````````````````````````````````````````````````````````````````````````````````````````````````````````",
"````````````````````````````````````````````````````````````````````````````````````````````````````````````````````````````````",
"````````````````````````````````````````````````````````````````````````````````````````````````````````````````````````````````",
"````````````````````````````````````````````````````````````````````````````````````````````````````````````````````````````````",
"````````````````````````````````````````````````````````````````````````````````````````````````````````````````````````````````",
"````````````````````````````````````````````````````````````````````````````````````````````````````````````````````````````````",
"````````````````````````````````````````````````````````````````````````````````````````````````````````````````````````````````",
"````````````````````````````````````````````````````````````````````````````````````````````````````````````````````````````````",
"````````````````````````````````````````````````````````````````````````````````````````````````````````````````````````````````"
};
