/* XPM */
static char *cbf589ad745f417cce8f83c6e53b6bad[] = {
/* columns rows colors chars-per-pixel */
"64 64 236 2 ",
"   c black",
".  c gray2",
"X  c #060606",
"o  c #090909",
"O  c gray4",
"+  c gray5",
"@  c #101010",
"#  c gray7",
"$  c gray8",
"%  c gray15",
"&  c #272727",
"*  c gray16",
"=  c #2C2C2C",
"-  c #323232",
";  c #353535",
":  c gray23",
">  c gray24",
",  c #3F3F3F",
"<  c #414141",
"1  c #454444",
"2  c #48494B",
"3  c #484B4D",
"4  c #4E4E4F",
"5  c gray31",
"6  c #515252",
"7  c #525253",
"8  c #535353",
"9  c #535454",
"0  c #555555",
"q  c #565656",
"w  c gray34",
"e  c #55595D",
"r  c #585858",
"t  c gray35",
"y  c #5A5A5A",
"u  c #5B5B5A",
"i  c #5B5B5B",
"p  c #5C5B5B",
"a  c #5C5B5D",
"s  c gray36",
"d  c #5D5D5D",
"f  c gray37",
"g  c #5F5E5E",
"h  c #5F5F5F",
"j  c #5B6352",
"k  c #61605F",
"l  c #64675E",
"z  c #575C61",
"x  c #585E63",
"c  c #605F62",
"v  c #5F6060",
"b  c #5D6266",
"n  c #5F676F",
"m  c #606060",
"M  c gray38",
"N  c #626262",
"B  c #626363",
"V  c gray39",
"C  c #656762",
"Z  c #636264",
"A  c #636364",
"S  c #646464",
"D  c #646465",
"F  c #656565",
"G  c #666764",
"H  c #666665",
"J  c #656566",
"K  c gray40",
"L  c #666767",
"P  c #676767",
"I  c #676867",
"U  c #686966",
"Y  c #676668",
"T  c #676768",
"R  c #686868",
"E  c DimGray",
"W  c #6A6B68",
"Q  c #6A6A6A",
"!  c #6B6A6B",
"~  c gray42",
"^  c #6B6C6A",
"/  c #6A6F6D",
"(  c #6C6C6C",
")  c #6D6C6D",
"_  c #6D6D6D",
"`  c #6D6E6E",
"'  c gray43",
"]  c #6F6F6E",
"[  c #6F6F6F",
"{  c #687461",
"}  c #6D7167",
"|  c #70706E",
" . c #74776F",
".. c #6F6F70",
"X. c #6E7479",
"o. c gray44",
"O. c #717170",
"+. c #717171",
"@. c #717172",
"#. c #727272",
"$. c #737273",
"%. c gray45",
"&. c #737374",
"*. c #727474",
"=. c #737474",
"-. c #737476",
";. c #747474",
":. c gray46",
">. c #767676",
",. c #777677",
"<. c #767777",
"1. c #777777",
"2. c #7B7F76",
"3. c #777778",
"4. c #787778",
"5. c gray47",
"6. c #787979",
"7. c #797979",
"8. c gray48",
"9. c #7B7B7B",
"0. c #7B7B7C",
"q. c #7C7C7C",
"w. c gray49",
"e. c #7D7D7E",
"r. c #7D7E7E",
"t. c #7E7E7E",
"y. c gray50",
"u. c #78886D",
"i. c #778477",
"p. c #808975",
"a. c #808A74",
"s. c #818A79",
"d. c #808080",
"f. c #818081",
"g. c #818181",
"h. c gray51",
"j. c #838383",
"k. c #868783",
"l. c #848484",
"z. c gray52",
"x. c #868686",
"c. c gray53",
"v. c #878B82",
"b. c #868A8D",
"n. c #888888",
"m. c #898989",
"M. c gray54",
"N. c #8B8B8B",
"B. c #8C8E8A",
"V. c gray55",
"C. c #8D8D8C",
"Z. c #8D8D8D",
"A. c #8E8D8E",
"S. c #8E8E8E",
"D. c #8E8F8F",
"F. c gray56",
"G. c #91948F",
"H. c #8F8F90",
"J. c #909090",
"K. c #919190",
"L. c gray57",
"P. c #929291",
"I. c #929292",
"U. c #929293",
"Y. c #939393",
"T. c #949395",
"R. c #939494",
"E. c gray58",
"W. c #949495",
"Q. c #959595",
"!. c #959596",
"~. c #949597",
"^. c gray59",
"/. c #979797",
"(. c #979A92",
"). c #969798",
"_. c #989898",
"`. c gray60",
"'. c #9A9A9A",
"]. c #9A9A9B",
"[. c #9B9B9B",
"{. c gray61",
"}. c #9D9D9C",
"|. c #9C9C9D",
" X c #9D9D9D",
".X c #9E9D9D",
"XX c #9E9D9F",
"oX c gray62",
"OX c #9F9F9F",
"+X c #A0A39B",
"@X c #9C9EA0",
"#X c #9DA1A5",
"$X c #A0A0A0",
"%X c gray63",
"&X c #A2A2A2",
"*X c gray64",
"=X c #A4A4A4",
"-X c #A5A5A5",
";X c #A6A7A6",
":X c #A6A6A7",
">X c #A7A7A7",
",X c #A7A6A9",
"<X c #A3A8AB",
"1X c gray66",
"2X c #A9A9A9",
"3X c #AAAAAA",
"4X c gray67",
"5X c #ACACAC",
"6X c #AEADAD",
"7X c #AEAEAE",
"8X c #AFAFAF",
"9X c #B1B2AF",
"0X c gray69",
"qX c #B1B1B1",
"wX c #B2B2B2",
"eX c gray70",
"rX c #B4B4B4",
"tX c #B6B6B5",
"yX c #B7B7B7",
"uX c gray72",
"iX c #B9B9B9",
"pX c gray73",
"aX c #BCBCBC",
"sX c gray",
"dX c gray75",
"fX c #C1C1C1",
"gX c gray76",
"hX c #C3C3C3",
"jX c #C3C3C4",
"kX c gray77",
"lX c #C5C5C5",
"zX c #C6C6C6",
"xX c gray78",
"cX c #C8C8C8",
"vX c gray80",
"bX c None",
/* pixels */
"bXbXbXbXbXbXbXbXbXbXbXbXbXbXbXbXbXbXbXbXbXbXbXbXbXbXbXbXbXbXbXbXbXbXbXbXbXbXbXbXbXbXbXbXbXbXbXbXbXbXbXbXbXbXbXbXbXbXbXbXbXbXbXbX",
"bXbXbXbXbXbXbXbXbXbXbXbXbXbXbXbXbXbXbXbXbXbXbXbXbXbXbXbXbXbXbXbXbXbXbXbXbXbXbXbXbXbXbXbXbXbXbXbXbXbXbXbXbXbXbXbXbXbXbXbXbXbXbXbX",
"bXbXbXbXbXbXbXbXbXbXbXbXbXbXbXbXbXbXbXbXbXbXbXbXbXbXbXbXbXbXbXbXbXbXbXbXbXbXbXbXbXbXbXbXbXbXbXbXbXbXbXbXbXbXbXbXbXbXbXbXbXbXbXbX",
"bXbXbXbXbXbXbXbXbXbXbXbXbXbXbXbXbXbXbXbXbXbXbXbXbXbXbXbXbXbXbXbXbXbXbXbXbXbXbXbXbXbXbXbXbXbXbXbXbXbXbXbXbXbXbXbXbXbXbXbXbXbXbXbX",
"bXbXbXbXbXbXbXbXbXbXbXbXbXbXbXbXbXbXbXbXbXbXbXbXbXbXbXbXbXbXbXbXbXbXbXbXbXbXbXbXbXbXbXbXbXbXbXbXbXbXbXbXbXbXbXbXbXbXbXbXbXbXbXbX",
"bXbXbXbXbXbXbXbXbXbXbXbXbXbXbXbXbXbXbXbXbXbXbXbXbXbXbXbXbXbXbXbXbXbXbXbXbXbXbXbXbXbXbXbXbXbXbXbXbXbXbXbXbXbXbXbXbXbXbXbXbXbXbXbX",
"bXbXbXbXbXbXbXbXbXbXbXbXbXbXbXbXbXbXbXbXbXbXbXbXbXbXbXbXbXbXbXbXbXbXbXbXbXbXbXbXbXbXbXbXbXbXbXbXbXbXbXbXbXbXbXbXbXbXbXbXbXbXbXbX",
"bXbXbXbXbXbXbXbXbXbXbXbXbXbXbXbXbXbXbXbXbXbXbXbXbXbXbXbXbXbXbXbXbXbXbXbXbXbXbXbXbXbXbXbXbXbXbXbXbXbXbXbXbXbXbXbXbXbXbXbXbXbXbXbX",
"bXbXbXbXbXbXbXbXbXbXbXbXbXbXbXbXbXbXbXbXbXbXbXbXbXbXbXbXbXbXbXbXbXbXbXbXbXbXbXbXbXbXbXbXbXbXbXbXbXbXbXbXbXbXbXbXbXbXbXbXbXbXbXbX",
"bXbXbXbXbXbXbXbXbXbXbXbXbXbXbXbXbXbXbXbXbXbXbXbXbXbXbXbXbXbXbXbXbXbXbXbXbXbXbXbXbXbXbXbXbXbXbXbXbXbXbXbXbXbXbXbXbXbXbXbXbXbXbXbX",
"bXbXbXbXbXbXbXbXbXbXbXbXbXbXbXbXbXbXbXbXbXbXbXbXbXbXbXbXbXbXbXbXbXbXbXbXbXbXbXbXbXbXbXbXbXbXbXbXbXbXbXbXbXbXbXbXbXbXbXbXbXbXbXbX",
"bXbXbXbXbXbXbXbXbXbXbXbXbXbXbXbXbXbXbXbXbXbXbXbXbXbXbXbXbXbXbXbXbXbXbXbXbXbXbXbXbXbXbXbXbXbXbXbXbXbXbXbXbXbXbXbXbXbXbXbXbXbXbXbX",
"bXbXbXbXbXbXbXbXbXbXbXbXbXbXbXbXbXbXbXbXbXbXbXbXbXbXbXbXbXbXbXbXbXbXbXbXbXbXbXbXbXbXbXbXbXbXbXbXbXbXbXbXbXbXbXbXbXbXbXbXbXA.h.bX",
"bXbXbXbXbXbXbXbXbXbXbXbXbXbXbXbXbXbXbXbXbXbXbXbXbXbXbXbXbXbXbXbXbXbXbXbXbXbXbXbXbXbXbXbXbXbXbXbXbXbXbXbXbXG x , [.,.bXbXA.. bXbX",
"bXbXbXbXbXbXbXbXbXbXbXbXbXbXbXbXbXbXbXbXbXbXbXbXbXbXbXbXbXbXbXbXbXbXbXbXbXbXbXbXbXbXbXbXbXbXbXbXbXbXbXbXbXbXG * . + % = $ bXbXbX",
"bXbXbXbXbXbXbXbXbXbXbXbXbXbXbXbXbXbXbXbXbXbXbXbXbXbXbXbXbXbXbXbXbXbXbXbXbXbXbXbXbXbXbXbXbXbXbXbXbXbXbXbXbXbXbXbXE.* # + > bXbXbX",
"bXbXbXbXbXbXbXbXbXbXbXbXbXbXbXhX2X_.E.E.E.E.E.R.Y.2XbXbXbXbXbXbXbXbXbXbXbXbXbXbXbXbXbXbXbXbXbXbXbXbXbXbXbXbXbXbXbXz.  # % bXbXbX",
"bXbXbXbXbXbXbXbXbXbXbXbXsXOXA.A.R._.[.[.OXOXOX{.[.J.A.Y.tXbXbXbXbXbXbXbXbXbXbXbXbXbXbXbXbXbXbXbXbXbXbXbXbXbXbXbXbX- w.< o z.bXbX",
"bXbXbXbXbXbXbXbXbXbXhXE.A.E.[.[.[.[.[.{.{.OXOXOXOX[.E.[.E.N.tXbXbXbXbXbXbXbXbXbXbXbXbXbXbXbXbXbXbXbXbXbXbXbXbXbX; bXbXbXo E.bXbX",
"bXbXbXbXbXbXbXbXbX[.A./.[.E.[.[.[.[.[.{.[.{.OX{.OXOX[.[.6XtXH.Y.bXbXbXbXbXbXbXbXbXbXbXbXbXbXbXbXbXbXbXbXbX,.o o bXbXbXbX* > bXbX",
"bXbXbXbXbXbXbXcXY.J.E.E.[./.E.[.[.[.[.{.{.{.OXOXOXOXOX[.Y.;XbX0Xj.bXbXbXbXbXbXbXbXbXbXbXbXbXbXbXbXbXbXbXbXkXy.$ bXbXbXbXG ! bXbX",
"bXbXbXbXbXbXhXN.E./.E.[.E./.[./.[.[.[.{.{.OXOX{.OXOXOXOXOXY.E.bXbXN.bXbXbXbXbXbXbXbXbXbXbXbXbXbXbXbXbXbX/.hXbX,.bXbXbXbXbX..bXbX",
"bXbXbXbXbXbXN.E.E.E.E././.[./.[.[._.[.[.[.OX{.OXOXOXOX$XOXOXz.pXbXbXA.bXbXbXbXbXbXbXbXbXbXbXbXbXbXbXpXz.zXbXbXbXbXbXbXbXbXbXbXbX",
"bXbXbXbXbXY.Y.E.E.E.[././.E.[.E._.[.[.[.[.[.[.OXOXOXOX$X$X[.A.bXbXbXbX[.bXbXbXbXbXbXbXbXbXbXbXbXbXM.l.bXbXbXbXbXbXbXbXbXbXbXbXbX",
"bXbXbXbXOXA.E.E.E.E.[.E././.[.[._.[.[.[.|.|.OXOXOXOXOXOX$X[.N.bXbXbXbXbX,XbXbXbXbXbXbXbXbXbXpXA.h.[.bXbXbXbXbXbXbXbXbXbXbXbXbXbX",
"bXbXbXzXN.Y.E.E.E.E.E.E./.E.E.E.E._.E.[./.|.[.|.OX|.OXOXOXOXA.2XbXbXbXbXbXxXbXbXbXbXbXbX2Xz.h.J.qXbXbXbXbXbXbXbXbXbXbXbXbXbXbXbX",
"bXbXbXE.Y.Y.E.E.Y.J.A.J.Y.|.*X,X;X>X1X>X;X%X/./.E.E./.[.[.[.E.N.N.[.;XbXbXbXbXbXbXbXE.h.N.A.OXbXbXbXbXbXbXbXbXbXbXbXbXbXbXbXbXbX",
"bXbXbXN.R.A.N.A.OX0XbXbXbXbXbXbXbXbXbXbXbXbXbXbXbXvXfXfXdXhXhXhXsXhXbXbXbXbXpXOXh.w.N.Y.E.pXbXbXbXbXbXbXbXbXbXbXbXbXbXbXbXbXbXbX",
"bXbXOXA.z.[.tXbXbXbX+Xv.2.} ] l U ! ! [ ,.8.A.J./.8X6X9X8XqX9XqX6X_./.l.w.8.w.z.A.J.$XzXbXbXbXbXbXbXbXbXbXbXbXbXbXbXbXbXbXbXbXbX",
"bXbXz.A.9XbX(. .C I _ &.4.0.w.d.h.h.h.w.i.w.8.8.,.,.,.,.,.5.8.8.q.l.l.M.A.Y.J.Y.6XbXbXbXbXbXbXbXbXbXbXbXbXbXbXbXbXbXbXbXbXbXbXbX",
"bXbXY.bXB.G _ ,.8.w.w.w.y.w.h.h.h.h.h.z.c.x.x.c.n.N.n.N.N.A.A.A.A.B.B.Y.Y.b.#XbXbXbXbXbXbXbXbXbXbXbXbXbXbXbXbXbXbXbXbXbXbXbXbXbX",
"bXbXhXh._ 8.8.8.8.8.8.w.w.w.w.y.w.h.h.h.z.z.z.x.c.c.c.n.z.z.c.A.[.*X#XA.W.bXbXbXbXbXbXbXbXbXbXbXbXbXbXbXbXbXbXbXbXbXbXbXbXbXbXbX",
"bXbXn.| 8.5.8.8.8.8.8.8.0.y.y.y.y.d.h.h.h.l.z.l.h.h.j.A.OXqXsXqXF.y.[.bXbXbXbXbXbXbXbXbXbXbXbXbXbXbXbXbXbXbXbXbXbXbXbXbXbXbXbXbX",
"bXbX_ 5.5.5.5.5.8.8.w.w.w.w.y.y.d.h.h.y.y.w.h.A.OXpXbXbXqXE.,._ OXbXbXbXbXbXbXbXbXbXbXbXbXbXbXbXbXbXbXbXbXbXbXbXbXbXbXbXbXbXbXbX",
"bXOXo.5.5.5.5.8.8.8.8.w.8.y.y.0.0.8.h.A.+XfXbXbXbXY.N.,.N =.qXbXbXbXbXbXbXbXbXbXbXbXbXbXbXbXbXbXbXbXbXbXbXbXbXbXbXbXbXbXbXbXbXbX",
"bXJ.o.1.1.5.5.8.8.8.0.8.8.8.8.z.E.qXbXbXuX|.h.,.&._ L 8.qXbXbXbXbXbXbXbXbXbXbXbXbXbXbXbXbXbXbXbXbXbXbXbXbXbXbXbXbXbXbXbXbXbXbXbX",
"bXY.o.,.,.5.5.5.8.8.8.,.w.Y.2XqX2XE.w._ U ] ,.;.G 0.bXbXbXbXbXbXbXbXbXbXbXbXbXbXbXbXbXbXbXbXbXbXbXbXbXbXbXbXbXbXbXbXbXbXbXbXbXbX",
"bXY.o.,.5.5.5.5.8.8.,.Y.-XJ.+.S N T _ o.,.;.V ] eXbXbXbXbXbXbXbXbXbXbXbXbXbXbXbXbXbXbXbXbXbXbXbXbXbXbXbXbXbXbXbXbXbXbXbXbXbXbXbX",
"bXR.o.,.5.,.5.5.,.8.-XE.G x G ! _ _ o.o.G x OXbXbXbXbXbXbXbXbXbXbXbXbXbXbXbXbXbXbXbXbXbXbXbXbXbXbXbXbXbXbXbXbXbXbXbXbXbXbXbXbXbX",
"bX=X[ ,.,.,.5.,.8.8Xw.p S J J ! _ _ _ f 8.bXbXbXbXbXbXbXbXbXbXbXbXbXbXbXbXbXbXbXbXbXbXbXbXbXbXbXbXbXbXbXbXbXbXbXbXbXbXbXbXbXbXbX",
"bXbX[ 1.1.1.1.=.$Xw.p V S G T ! _ ! q ! bXbXbXbXbXbXbXbXbXbXbX6XbXbXbXbXbXbXbXbXbXbXbXbXbXbXbXbXbXbXbXbXbXbXbXbXbXbXbXbXbXbXbXbX",
"bXbX8.,.,.1.:.c./.p N N S G G ! ! q z bXbXbXbXbXbXbXbXbX5Xh.y h.bXbXbXbXbXbXbXbXbXbXbXbXbXbXbXbXbXbXbXbXbXbXbXbXbXbXbXbXbXbXbXbX",
"bXbX$X[ ,.1.| #X&.p x N S S T T G 3 X.bXbXbXbXbXbXbX[.8.v G bXbXbXbXbXbXbXbXbXbXbXbXbXbXbXbXbXbXbXbXbXbXbXbXbXbXbXbXbXbXbXbXbXbX",
"bXbXbX,.=.1.] G.C g k N S S J ! G 4 b bXbXbXbXbXA.o.o.Z ,.bXbXbXbXbXbXbXbXbXbXbXbXbXbXbXbXbXbXbXbXbXbXbXbXbXbXbXbXbXbXbXbXbXbXbX",
"bXbXbX$X_ 1.W a.Z f N N Z G G J I S y v _ o.o.( | ,.G i bXbXbXbXbXbXbXbX<XbXbXbXbXbXbXbXbXbXbXbXbXbXbXbXbXbXbXbXbXbXbXbXbXbXbXbX",
"bXbXbXbXq.:.W a.Z f f N N Z J J L ! W ! ! _ _ =.,.! 9 bXbXbXbXbXbXbXbX{.3 bXbXbXbXbXbXbXbXbXbXbXbXbXbXbXbXbXbXbXbXbXbXbXbXbXbXbX",
"bXbXbXbXbX[ W s.G f g V N N A G G ! ! ! _ o.o.o.o.f x bXbXbXbXbXbXbXz.1 bXbXbXbXbXbXbXbXbXbXbXbXbXbXbXbXbXbXbXbXbXbXbXbXbXbXbXbX",
"bXbXbXbXbX>X! { _ p g x v N Z G J G ! ! _ _ o.o._ 6 n bXbXbXbXbX;X_ 5 z.bXbXbXbXbXbXbXbXbXbXbXbXbXbXbXbXbXbXbXbXbXbXbXbXbXbXbXbX",
"bXbXbXbXbXbXE.j i.f f f N N N G G J J ! ! ! _ _ _ r e bXbXbXOX,.! q _ bXbXbXbXbXbXbXbXbXbXbXbXbXbXbXbXbXbXbXbXbXbXbXbXbXbXbXbXbX",
"bXbXbXbXbXbXbXc.u.&.y f f f N N Z G J ! I ! ( ( _ ! N G _ G ! ( 6 w.bXbXbXbXbXbXbXbXbXbXbXbXbXbXbXbXbXbXbXbXbXbXbXbXbXbXbXbXbXbX",
"bXbXbXbXbXbXbXbXbXbXc y g k x V Z A G G I ! ! ( ( _ _ _ _ o.N 6 E.bXbXbXbXbXbXbXbXbXbXbXbXbXbXbXbXbXbXbXbXbXbXbXbXbXbXbXbXbXbXbX",
"bXbXbXbXbXbXbXbXbXbXbXv w g g k N Z Z G G L I L ! ! _ ! N q ,.bXbXbXbXbXbXbXbXbXbXbXbXbXbXbXbXbXbXbXbXbXbXbXbXbXbXbXbXbXbXbXbXbX",
"bXbXbXbXbXbXbXbXbXbXbXbXA.N q q y f N v N Z Z G N f y f w.bXbXbXbXbXbXbXbXbXbXbXbXbXbXbXbXbXbXbXbXbXbXbXbXbXbXbXbXbXbXbXbXbXbXbX",
"bXbXbXbXbXbXbXbXbXbXbXbXbXbXbX$Xz..._ ! ! ! ! _ 8.Y.bXbXbXbXbXbXbXbXbXbXbXbXbXbXbXbXbXbXbXbXbXbXbXbXbXbXbXbXbXbXbXbXbXbXbXbXbXbX",
"bXbXbXbXbXbXbXbXbXbXbXbXbXbXbXbXbXbXbXbXbXbXbXbXbXbXbXbXbXbXbXbXbXbXbXbXbXbXbXbXbXbXbXbXbXbXbXbXbXbXbXbXbXbXbXbXbXbXbXbXbXbXbXbX",
"bXbXbXbXbXbXbXbXbXbXbXbXbXbXbXbXbXbXbXbXbXbXbXbXbXbXbXbXbXbXbXbXbXbXbXbXbXbXbXbXbXbXbXbXbXbXbXbXbXbXbXbXbXbXbXbXbXbXbXbXbXbXbXbX",
"bXbXbXbXbXbXbXbXbXbXbXbXbXbXbXbXbXbXbXbXbXbXbXbXbXbXbXbXbXbXbXbXbXbXbXbXbXbXbXbXbXbXbXbXbXbXbXbXbXbXbXbXbXbXbXbXbXbXbXbXbXbXbXbX",
"bXbXbXbXbXbXbXbXbXbXbXbXbXbXbXbXbXbXbXbXbXbXbXbXbXbXbXbXbXbXbXbXbXbXbXbXbXbXbXbXbXbXbXbXbXbXbXbXbXbXbXbXbXbXbXbXbXbXbXbXbXbXbXbX",
"bXbXbXbXbXbXbXbXbXbXbXbXbXbXbXbXbXbXbXbXbXbXbXbXbXbXbXbXbXbXbXbXbXbXbXbXbXbXbXbXbXbXbXbXbXbXbXbXbXbXbXbXbXbXbXbXbXbXbXbXbXbXbXbX",
"bXbXbXbXbXbXbXbXbXbXbXbXbXbXbXbXbXbXbXbXbXbXbXbXbXbXbXbXbXbXbXbXbXbXbXbXbXbXbXbXbXbXbXbXbXbXbXbXbXbXbXbXbXbXbXbXbXbXbXbXbXbXbXbX",
"bXbXbXbXbXbXbXbXbXbXbXbXbXbXbXbXbXbXbXbXbXbXbXbXbXbXbXbXbXbXbXbXbXbXbXbXbXbXbXbXbXbXbXbXbXbXbXbXbXbXbXbXbXbXbXbXbXbXbXbXbXbXbXbX",
"bXbXbXbXbXbXbXbXbXbXbXbXbXbXbXbXbXbXbXbXbXbXbXbXbXbXbXbXbXbXbXbXbXbXbXbXbXbXbXbXbXbXbXbXbXbXbXbXbXbXbXbXbXbXbXbXbXbXbXbXbXbXbXbX",
"bXbXbXbXbXbXbXbXbXbXbXbXbXbXbXbXbXbXbXbXbXbXbXbXbXbXbXbXbXbXbXbXbXbXbXbXbXbXbXbXbXbXbXbXbXbXbXbXbXbXbXbXbXbXbXbXbXbXbXbXbXbXbXbX",
"bXbXbXbXbXbXbXbXbXbXbXbXbXbXbXbXbXbXbXbXbXbXbXbXbXbXbXbXbXbXbXbXbXbXbXbXbXbXbXbXbXbXbXbXbXbXbXbXbXbXbXbXbXbXbXbXbXbXbXbXbXbXbXbX"
};
