/* XPM */
static char *_e5d339c1c544aeacb7b3095d98a522e[] = {
/* columns rows colors chars-per-pixel */
"32 32 144 2 ",
"   c #0E0E0E",
".  c gray14",
"X  c #3F3F3F",
"o  c #4E4E4E",
"O  c gray32",
"+  c #555555",
"@  c #575859",
"#  c #595859",
"$  c gray35",
"%  c #5A5A5A",
"&  c gray37",
"*  c #5F5F5F",
"=  c #5F5F60",
"-  c #5F6060",
";  c #606060",
":  c #616162",
">  c #626262",
",  c gray39",
"<  c #626462",
"1  c #646462",
"2  c #646464",
"3  c #646565",
"4  c #656565",
"5  c #656566",
"6  c gray40",
"7  c #676767",
"8  c #656D62",
"9  c #676C64",
"0  c #686868",
"q  c DimGray",
"w  c #6A6969",
"e  c #6A6A6A",
"r  c gray42",
"t  c #6B6B6C",
"y  c #6C6C6C",
"u  c #6D6D6D",
"i  c #6C6D6E",
"p  c gray43",
"a  c #6F6F6F",
"s  c #74786E",
"d  c #6E6F70",
"f  c #717170",
"g  c #727272",
"h  c #737372",
"j  c gray45",
"k  c #737374",
"l  c #747475",
"z  c gray46",
"x  c #757576",
"c  c #767676",
"v  c #777777",
"b  c gray47",
"n  c #797979",
"m  c gray48",
"M  c #7B7B7B",
"N  c #7C7D7B",
"B  c #7D7F7B",
"V  c #7C7C7C",
"C  c gray49",
"Z  c #7E7E7D",
"A  c #7E7E7E",
"S  c #7F7F80",
"D  c #808080",
"F  c #818181",
"G  c #828182",
"H  c gray51",
"J  c #838382",
"K  c #838383",
"L  c #828480",
"P  c #828482",
"I  c #838384",
"U  c #848484",
"Y  c #848585",
"T  c gray52",
"R  c #868585",
"E  c #868686",
"W  c #878686",
"Q  c gray53",
"!  c #898B87",
"~  c #888888",
"^  c #89898A",
"/  c gray54",
"(  c #8D8D8D",
")  c #8E8E8D",
"_  c #8E8E8E",
"`  c gray56",
"'  c #8E9189",
"]  c #909090",
"[  c #929292",
"{  c #929293",
"}  c #939393",
"|  c #949394",
" . c gray58",
".. c #959595",
"X. c gray59",
"o. c #969697",
"O. c #979797",
"+. c #979798",
"@. c #989898",
"#. c gray60",
"$. c #9A9A9A",
"%. c #9A9B9B",
"&. c #9B9B9B",
"*. c #9C9E9B",
"=. c gray61",
"-. c #9D9D9D",
";. c gray62",
":. c #9F9F9F",
">. c #9DA09A",
",. c #A1A59E",
"<. c #999EA2",
"1. c #A0A0A0",
"2. c gray63",
"3. c #A1A2A1",
"4. c #A2A2A2",
"5. c gray64",
"6. c #A4A4A4",
"7. c #A5A5A5",
"8. c #A7A8A8",
"9. c gray66",
"0. c #AAAAAA",
"q. c gray67",
"w. c #ACACAC",
"e. c #ADADAC",
"r. c gray68",
"t. c #AEAEAE",
"y. c #AFAFAF",
"u. c #B0B1AE",
"i. c #B2B4AF",
"p. c #B1B1B1",
"a. c gray70",
"s. c #B4B5B2",
"d. c #B4B4B4",
"f. c gray71",
"g. c #B6B6B6",
"h. c #B7B7B7",
"j. c gray72",
"k. c #B9B9B9",
"l. c #BAB9BA",
"z. c #BBBBBB",
"x. c gray",
"c. c gray75",
"v. c #C8C8C8",
"b. c None",
/* pixels */
"b.b.b.b.b.b.b.b.b.b.b.b.b.b.b.b.b.b.b.b.b.b.b.b.b.b.b.b.b.b.b.b.",
"b.b.b.b.b.b.b.b.b.b.b.b.b.b.b.b.b.b.b.b.b.b.b.b.b.b.b.b.b.b.b.b.",
"b.b.b.b.b.b.b.b.b.b.b.b.b.b.b.b.b.b.b.b.b.b.b.b.b.b.b.b.b.b.b.b.",
"b.b.b.b.b.b.b.b.b.b.b.b.b.b.b.b.b.b.b.b.b.b.b.b.b.b.b.b.b.b.b.b.",
"b.b.b.b.b.b.b.b.b.b.b.b.b.b.b.b.b.b.b.b.b.b.b.b.b.b.b.b.b.b.b.b.",
"b.b.b.b.b.b.b.b.b.b.b.b.b.b.b.b.b.b.b.b.b.b.b.b.b.b.b.b.b.b.b.b.",
"b.b.b.b.b.b.b.b.b.b.b.b.b.b.b.b.b.b.b.b.b.b.b.b.b.b.b.b.b.b.[ b.",
"b.b.b.b.b.b.b.b.b.b.b.b.b.b.b.b.b.b.b.b.b.b.b.b.b.b.b.b.X   M b.",
"b.b.b.b.b.b.b.d.3.=.;.;.2.j.b.b.b.b.b.b.b.b.b.b.b.b.b.b.b.. r b.",
"b.b.b.b.b.3.[ [ #.#.#.;.&.| ;.z.b.b.b.b.b.b.b.b.b.b.b.+ b.b.o b.",
"b.b.b.v.( ..#.#.#.;.;.;.>.<.;.p.d.b.b.b.b.b.b.b.b.b.b.C b.b...b.",
"b.b.b.( ....#.#.#.#.;.;.;.3.O.h.b.v.b.b.b.b.b.b.b.r.b.b.b.b.b.b.",
"b.b...[ [ } ....#.#.#.#.#.;.O.0.b.b.b.b.b.b.b.#.r.b.b.b.b.b.b.b.",
"b.z.^ +.3.r.s.i.p.d.z.z.p.p.p.0.r.b.b.b.r.( ..b.b.b.b.b.b.b.b.b.",
"b.#.*.>.' ! L N C G ! ] ....#.&...[ W W 6.b.b.b.b.b.b.b.b.b.b.b.",
"b.6.N h x n C S J J G G G G Q ( ( ( <.b.b.b.b.b.b.b.b.b.b.b.b.b.",
"b.S k N n C C C C C W ] &.6.&...6.b.b.b.b.b.b.b.b.b.b.b.b.b.b.b.",
"b.h b n n n N W ..6.8.>.W G 6.b.b.b.b.b.b.b.b.b.b.b.b.b.b.b.b.b.",
"z.h v b n W ( ^ E C u i 3.b.b.b.b.b.b.b.b.b.b.b.b.b.b.b.b.b.b.b.",
"b.h v x Q U 0 , r 6 ^ b.b.b.b.b.b.b.b.b.b.b.b.b.b.b.b.b.b.b.b.b.",
"b.n x G G & , 0 : d b.b.b.b.b.3.b.b.b.b.b.b.b.b.b.b.b.b.b.b.b.b.",
"b.3.u G r * 6 r @ b.b.b.d.n ^ b.b.b.b.b.b.b.b.b.b.b.b.b.b.b.b.b.",
"b.b.j s 1 ; ; 6 6 6 x x 6 6 b.b.b.b.b.b.b.b.b.b.b.b.b.b.b.b.b.b.",
"b.b.z.9 , ; ; 6 6 r r f = b.b.b.d.u b.b.b.b.b.b.b.b.b.b.b.b.b.b.",
"b.b.b.,.9 % & , 6 r r u 6 i ;.n ; b.b.b.b.b.b.b.b.b.b.b.b.b.b.b.",
"b.b.b.b.b.S O % ; ; , 6 r ; % C b.b.b.b.b.b.b.b.b.b.b.b.b.b.b.b.",
"b.b.b.b.b.b.b.^ k u u a n #.b.b.b.b.b.b.b.b.b.b.b.b.b.b.b.b.b.b.",
"b.b.b.b.b.b.b.b.b.b.b.b.b.b.b.b.b.b.b.b.b.b.b.b.b.b.b.b.b.b.b.b.",
"b.b.b.b.b.b.b.b.b.b.b.b.b.b.b.b.b.b.b.b.b.b.b.b.b.b.b.b.b.b.b.b.",
"b.b.b.b.b.b.b.b.b.b.b.b.b.b.b.b.b.b.b.b.b.b.b.b.b.b.b.b.b.b.b.b.",
"b.b.b.b.b.b.b.b.b.b.b.b.b.b.b.b.b.b.b.b.b.b.b.b.b.b.b.b.b.b.b.b.",
"b.b.b.b.b.b.b.b.b.b.b.b.b.b.b.b.b.b.b.b.b.b.b.b.b.b.b.b.b.b.b.b."
};
