/* XPM */
static char *_f107e8a1b7d4df5bb06f0dfb425de90[] = {
/* columns rows colors chars-per-pixel */
"16 16 54 1 ",
"  c #575956",
". c #575758",
"X c #5B5B5B",
"o c gray37",
"O c #5F5F5F",
"+ c #636263",
"@ c gray39",
"# c DimGray",
"$ c #6D6D6D",
"% c #6C6D6E",
"& c #6C6E6E",
"* c #727272",
"= c #747474",
"- c #747574",
"; c gray46",
": c #767676",
"> c #797979",
", c #7B7B7B",
"< c #808081",
"1 c #828182",
"2 c #848483",
"3 c #848484",
"4 c #858684",
"5 c #868785",
"6 c #878A86",
"7 c #898B87",
"8 c #8B8B8B",
"9 c gray55",
"0 c #8D8D8D",
"q c #8E8E8E",
"w c gray56",
"e c #909090",
"r c gray57",
"t c #929292",
"y c #939393",
"u c #969796",
"i c gray60",
"p c #9B9B9B",
"a c #9C9C9B",
"s c #9D9D9D",
"d c #A0A0A0",
"f c #A2A2A0",
"g c #A2A2A2",
"h c #A5A5A5",
"j c #A7A7A7",
"k c gray66",
"l c #A9A9A9",
"z c #A8AAAB",
"x c #AFAFAF",
"c c gray69",
"v c #B9B9B9",
"b c #BBBBBB",
"n c #C0C0C0",
"m c None",
/* pixels */
"mmmmmmmmmmmmmmmm",
"mmmmmmmmmmmmmmmm",
"mmmmmmmmmmmmmmmm",
"mmmmmmmmmmmmmm:m",
"mmmxddhmmmmmmm,m",
"mmwrppphmmmmmmmm",
"muafdkhkmmmbmmmm",
"n55228rrwkmmmmmm",
"d*:28wwcmmmmmmmm",
"y=<,:smmmmmmmmmm",
"b=%o%mmmmmmmmmmm",
"m7 +#:%mmmmmmmmm",
"mm6.Xo@5mmmmmmmm",
"mmmmmxmmmmmmmmmm",
"mmmmmmmmmmmmmmmm",
"mmmmmmmmmmmmmmmm"
};
